@startuml

left to right direction

skinparam Monochrome true
skinparam Shadowing false

' Replace the following placeholders. Delete this line when complete. 
entity EntityOne {
  * id
  --
    optional_attribute
    optional_attribute
    optional_attribute
}

entity EntityTwo {
  * id
  --
  * mandatory_attribute
  * mandatory_attribute
  * mandatory_attribute
}

EntityOne }|..|| EntityTwo
EntityThree }o..o| EntityFive
EntityFour ||--o{ EntitySix

@enduml